<?xml version="1.0" encoding="UTF-8"?>
<svg width="3120px" height="526px" viewBox="0 0 3120 526" version="1.1" xmlns="http://www.w3.org/2000/svg" xmlns:xlink="http://www.w3.org/1999/xlink">
    <!-- Generator: Sketch 59.1 (86144) - https://sketch.com -->
    <title>hours</title>
    <desc>Created with Sketch.</desc>
    <g id="hours" stroke="none" stroke-width="1" fill="none" fill-rule="evenodd">
        <rect id="Rectangle" fill="#FFFFFF" x="0" y="68" width="30" height="391"></rect>
        <rect id="Rectangle-Copy" fill="#FFFFFF" x="780" y="68" width="30" height="391"></rect>
        <rect id="Rectangle-Copy-5" fill="#FFFFFF" x="130" y="68" width="30" height="391"></rect>
        <rect id="Rectangle-Copy-6" fill="#FFFFFF" x="260" y="68" width="30" height="391"></rect>
        <rect id="Rectangle-Copy-8" fill="#FFFFFF" x="390" y="68" width="30" height="391"></rect>
        <rect id="Rectangle-Copy-9" fill="#FFFFFF" x="520" y="68" width="30" height="391"></rect>
        <rect id="Rectangle-Copy-10" fill="#FFFFFF" x="650" y="68" width="30" height="391"></rect>
        <rect id="Rectangle-Copy-11" fill="#FFFFFF" x="1040" y="68" width="30" height="391"></rect>
        <rect id="Rectangle-Copy-12" fill="#FFFFFF" x="1300" y="68" width="30" height="391"></rect>
        <rect id="Rectangle-Copy-13" fill="#FFFFFF" x="1430" y="68" width="30" height="391"></rect>
        <rect id="Rectangle-Copy-2" fill="#FFFFFF" x="910" y="68" width="30" height="391"></rect>
        <rect id="Rectangle-Copy-3" fill="#FFFFFF" x="1170" y="68" width="30" height="391"></rect>
        <rect id="Rectangle" fill="#FFFFFF" x="1560" y="68" width="30" height="391"></rect>
        <rect id="Rectangle-Copy" fill="#FFFFFF" x="2340" y="68" width="30" height="391"></rect>
        <rect id="Rectangle-Copy-5" fill="#FFFFFF" x="1690" y="68" width="30" height="391"></rect>
        <rect id="Rectangle-Copy-6" fill="#FFFFFF" x="1820" y="68" width="30" height="391"></rect>
        <rect id="Rectangle-Copy-8" fill="#FFFFFF" x="1950" y="68" width="30" height="391"></rect>
        <rect id="Rectangle-Copy-9" fill="#FFFFFF" x="2080" y="68" width="30" height="391"></rect>
        <rect id="Rectangle-Copy-10" fill="#FFFFFF" x="2210" y="68" width="30" height="391"></rect>
        <rect id="Rectangle-Copy-11" fill="#FFFFFF" x="2600" y="68" width="30" height="391"></rect>
        <rect id="Rectangle-Copy-12" fill="#FFFFFF" x="2860" y="68" width="30" height="391"></rect>
        <rect id="Rectangle-Copy-13" fill="#FFFFFF" x="2990" y="68" width="30" height="391"></rect>
        <rect id="Rectangle-Copy-2" fill="#FFFFFF" x="2470" y="68" width="30" height="391"></rect>
        <rect id="Rectangle-Copy-3" fill="#FFFFFF" x="2730" y="68" width="30" height="391"></rect>
    </g>
</svg>