<?xml version="1.0" encoding="UTF-8"?>
<svg width="5400px" height="526px" viewBox="0 0 5400 526" version="1.1" xmlns="http://www.w3.org/2000/svg" xmlns:xlink="http://www.w3.org/1999/xlink">
    <!-- Generator: Sketch 59.1 (86144) - https://sketch.com -->
    <title>minutes</title>
    <desc>Created with Sketch.</desc>
    <g id="minutes" stroke="none" stroke-width="1" fill="none" fill-rule="evenodd">
        <rect id="Rectangle" fill="#FFFFFF" x="0" y="68" width="20" height="391"></rect>
        <rect id="Rectangle-Copy" fill="#FFFFFF" x="540" y="68" width="20" height="391"></rect>
        <rect id="Rectangle-Copy-5" fill="#FFFFFF" x="90" y="68" width="20" height="391"></rect>
        <rect id="Rectangle-Copy-6" fill="#FFFFFF" x="180" y="68" width="20" height="391"></rect>
        <rect id="Rectangle-Copy-8" fill="#FFFFFF" x="270" y="68" width="20" height="391"></rect>
        <rect id="Rectangle-Copy-9" fill="#FFFFFF" x="360" y="68" width="20" height="391"></rect>
        <rect id="Rectangle-Copy-10" fill="#FFFFFF" x="450" y="68" width="20" height="391"></rect>
        <rect id="Rectangle-Copy-11" fill="#FFFFFF" x="720" y="68" width="20" height="391"></rect>
        <rect id="Rectangle-Copy-12" fill="#FFFFFF" x="900" y="68" width="20" height="391"></rect>
        <rect id="Rectangle-Copy-13" fill="#FFFFFF" x="990" y="68" width="20" height="391"></rect>
        <rect id="Rectangle-Copy-2" fill="#FFFFFF" x="630" y="68" width="20" height="391"></rect>
        <rect id="Rectangle-Copy-3" fill="#FFFFFF" x="810" y="68" width="20" height="391"></rect>
        <rect id="Rectangle" fill="#FFFFFF" x="1080" y="68" width="20" height="391"></rect>
        <rect id="Rectangle-Copy" fill="#FFFFFF" x="1620" y="68" width="20" height="391"></rect>
        <rect id="Rectangle-Copy-5" fill="#FFFFFF" x="1170" y="68" width="20" height="391"></rect>
        <rect id="Rectangle-Copy-6" fill="#FFFFFF" x="1260" y="68" width="20" height="391"></rect>
        <rect id="Rectangle-Copy-8" fill="#FFFFFF" x="1350" y="68" width="20" height="391"></rect>
        <rect id="Rectangle-Copy-9" fill="#FFFFFF" x="1440" y="68" width="20" height="391"></rect>
        <rect id="Rectangle-Copy-10" fill="#FFFFFF" x="1530" y="68" width="20" height="391"></rect>
        <rect id="Rectangle-Copy-11" fill="#FFFFFF" x="1800" y="68" width="20" height="391"></rect>
        <rect id="Rectangle-Copy-12" fill="#FFFFFF" x="1980" y="68" width="20" height="391"></rect>
        <rect id="Rectangle-Copy-13" fill="#FFFFFF" x="2070" y="68" width="20" height="391"></rect>
        <rect id="Rectangle-Copy-2" fill="#FFFFFF" x="1710" y="68" width="20" height="391"></rect>
        <rect id="Rectangle-Copy-3" fill="#FFFFFF" x="1890" y="68" width="20" height="391"></rect>
        <rect id="Rectangle" fill="#FFFFFF" x="2160" y="68" width="20" height="391"></rect>
        <rect id="Rectangle-Copy" fill="#FFFFFF" x="2700" y="68" width="20" height="391"></rect>
        <rect id="Rectangle-Copy-5" fill="#FFFFFF" x="2250" y="68" width="20" height="391"></rect>
        <rect id="Rectangle-Copy-6" fill="#FFFFFF" x="2340" y="68" width="20" height="391"></rect>
        <rect id="Rectangle-Copy-8" fill="#FFFFFF" x="2430" y="68" width="20" height="391"></rect>
        <rect id="Rectangle-Copy-9" fill="#FFFFFF" x="2520" y="68" width="20" height="391"></rect>
        <rect id="Rectangle-Copy-10" fill="#FFFFFF" x="2610" y="68" width="20" height="391"></rect>
        <rect id="Rectangle-Copy-11" fill="#FFFFFF" x="2880" y="68" width="20" height="391"></rect>
        <rect id="Rectangle-Copy-12" fill="#FFFFFF" x="3060" y="68" width="20" height="391"></rect>
        <rect id="Rectangle-Copy-13" fill="#FFFFFF" x="3150" y="68" width="20" height="391"></rect>
        <rect id="Rectangle-Copy-2" fill="#FFFFFF" x="2790" y="68" width="20" height="391"></rect>
        <rect id="Rectangle-Copy-3" fill="#FFFFFF" x="2970" y="68" width="20" height="391"></rect>
        <rect id="Rectangle" fill="#FFFFFF" x="3240" y="68" width="20" height="391"></rect>
        <rect id="Rectangle-Copy" fill="#FFFFFF" x="3780" y="68" width="20" height="391"></rect>
        <rect id="Rectangle-Copy-5" fill="#FFFFFF" x="3330" y="68" width="20" height="391"></rect>
        <rect id="Rectangle-Copy-6" fill="#FFFFFF" x="3420" y="68" width="20" height="391"></rect>
        <rect id="Rectangle-Copy-8" fill="#FFFFFF" x="3510" y="68" width="20" height="391"></rect>
        <rect id="Rectangle-Copy-9" fill="#FFFFFF" x="3600" y="68" width="20" height="391"></rect>
        <rect id="Rectangle-Copy-10" fill="#FFFFFF" x="3690" y="68" width="20" height="391"></rect>
        <rect id="Rectangle-Copy-11" fill="#FFFFFF" x="3960" y="68" width="20" height="391"></rect>
        <rect id="Rectangle-Copy-12" fill="#FFFFFF" x="4140" y="68" width="20" height="391"></rect>
        <rect id="Rectangle-Copy-13" fill="#FFFFFF" x="4230" y="68" width="20" height="391"></rect>
        <rect id="Rectangle-Copy-2" fill="#FFFFFF" x="3870" y="68" width="20" height="391"></rect>
        <rect id="Rectangle-Copy-3" fill="#FFFFFF" x="4050" y="68" width="20" height="391"></rect>
        <rect id="Rectangle" fill="#FFFFFF" x="4320" y="68" width="20" height="391"></rect>
        <rect id="Rectangle-Copy" fill="#FFFFFF" x="4860" y="68" width="20" height="391"></rect>
        <rect id="Rectangle-Copy-5" fill="#FFFFFF" x="4410" y="68" width="20" height="391"></rect>
        <rect id="Rectangle-Copy-6" fill="#FFFFFF" x="4500" y="68" width="20" height="391"></rect>
        <rect id="Rectangle-Copy-8" fill="#FFFFFF" x="4590" y="68" width="20" height="391"></rect>
        <rect id="Rectangle-Copy-9" fill="#FFFFFF" x="4680" y="68" width="20" height="391"></rect>
        <rect id="Rectangle-Copy-10" fill="#FFFFFF" x="4770" y="68" width="20" height="391"></rect>
        <rect id="Rectangle-Copy-11" fill="#FFFFFF" x="5040" y="68" width="20" height="391"></rect>
        <rect id="Rectangle-Copy-12" fill="#FFFFFF" x="5220" y="68" width="20" height="391"></rect>
        <rect id="Rectangle-Copy-13" fill="#FFFFFF" x="5310" y="68" width="20" height="391"></rect>
        <rect id="Rectangle-Copy-2" fill="#FFFFFF" x="4950" y="68" width="20" height="391"></rect>
        <rect id="Rectangle-Copy-3" fill="#FFFFFF" x="5130" y="68" width="20" height="391"></rect>
    </g>
</svg>