<?xml version="1.0" encoding="UTF-8"?>
<svg width="3840px" height="526px" viewBox="0 0 3840 526" version="1.1" xmlns="http://www.w3.org/2000/svg" xmlns:xlink="http://www.w3.org/1999/xlink">
    <!-- Generator: Sketch 59.1 (86144) - https://sketch.com -->
    <title>months</title>
    <desc>Created with Sketch.</desc>
    <g id="months" stroke="none" stroke-width="1" fill="none" fill-rule="evenodd">
        <rect id="Rectangle" fill="#FFFFFF" x="0" y="68" width="90" height="391"></rect>
        <rect id="Rectangle-Copy-2" fill="#FFFFFF" x="1680" y="68" width="90" height="391"></rect>
        <rect id="Rectangle-Copy" fill="#FFFFFF" x="1440" y="68" width="90" height="391"></rect>
        <rect id="Rectangle-Copy-3" fill="#FFFFFF" x="3120" y="68" width="90" height="391"></rect>
        <rect id="Rectangle-Copy-4" fill="#FFFFFF" x="3600" y="68" width="90" height="391"></rect>
        <rect id="Rectangle-Copy-5" fill="#FFFFFF" x="240" y="68" width="90" height="391"></rect>
        <rect id="Rectangle-Copy-7" fill="#FFFFFF" x="1920" y="68" width="90" height="391"></rect>
        <rect id="Rectangle-Copy-6" fill="#FFFFFF" x="480" y="68" width="90" height="391"></rect>
        <rect id="Rectangle-Copy-11" fill="#FFFFFF" x="2160" y="68" width="90" height="391"></rect>
        <rect id="Rectangle-Copy-8" fill="#FFFFFF" x="720" y="68" width="90" height="391"></rect>
        <rect id="Rectangle-Copy-12" fill="#FFFFFF" x="2400" y="68" width="90" height="391"></rect>
        <rect id="Rectangle-Copy-9" fill="#FFFFFF" x="960" y="68" width="90" height="391"></rect>
        <rect id="Rectangle-Copy-13" fill="#FFFFFF" x="2640" y="68" width="90" height="391"></rect>
        <rect id="Rectangle-Copy-10" fill="#FFFFFF" x="1200" y="68" width="90" height="391"></rect>
        <rect id="Rectangle-Copy-14" fill="#FFFFFF" x="2880" y="68" width="90" height="391"></rect>
        <rect id="Rectangle-Copy-15" fill="#FFFFFF" x="3360" y="68" width="90" height="391"></rect>
    </g>
</svg>