<?xml version="1.0" encoding="UTF-8"?>
<svg width="3600px" height="526px" viewBox="0 0 3600 526" version="1.1" xmlns="http://www.w3.org/2000/svg" xmlns:xlink="http://www.w3.org/1999/xlink">
    <!-- Generator: Sketch 59.1 (86144) - https://sketch.com -->
    <title>seconds</title>
    <desc>Created with Sketch.</desc>
    <g id="seconds" stroke="none" stroke-width="1" fill="none" fill-rule="evenodd">
        <g id="Group" transform="translate(0.000000, 68.000000)" fill="#FFFFFF">
            <rect id="Rectangle" x="0" y="0" width="10" height="391"></rect>
            <rect id="Rectangle-Copy" x="360" y="0" width="10" height="391"></rect>
            <rect id="Rectangle-Copy-5" x="60" y="0" width="10" height="391"></rect>
            <rect id="Rectangle-Copy-6" x="120" y="0" width="10" height="391"></rect>
            <rect id="Rectangle-Copy-8" x="180" y="0" width="10" height="391"></rect>
            <rect id="Rectangle-Copy-9" x="240" y="0" width="10" height="391"></rect>
            <rect id="Rectangle-Copy-10" x="300" y="0" width="10" height="391"></rect>
            <rect id="Rectangle-Copy-11" x="480" y="0" width="10" height="391"></rect>
            <rect id="Rectangle-Copy-12" x="600" y="0" width="10" height="391"></rect>
            <rect id="Rectangle-Copy-13" x="660" y="0" width="10" height="391"></rect>
            <rect id="Rectangle-Copy-2" x="420" y="0" width="10" height="391"></rect>
            <rect id="Rectangle-Copy-3" x="540" y="0" width="10" height="391"></rect>
            <rect id="Rectangle" x="720" y="0" width="10" height="391"></rect>
            <rect id="Rectangle-Copy" x="1080" y="0" width="10" height="391"></rect>
            <rect id="Rectangle-Copy-5" x="780" y="0" width="10" height="391"></rect>
            <rect id="Rectangle-Copy-6" x="840" y="0" width="10" height="391"></rect>
            <rect id="Rectangle-Copy-8" x="900" y="0" width="10" height="391"></rect>
            <rect id="Rectangle-Copy-9" x="960" y="0" width="10" height="391"></rect>
            <rect id="Rectangle-Copy-10" x="1020" y="0" width="10" height="391"></rect>
            <rect id="Rectangle-Copy-11" x="1200" y="0" width="10" height="391"></rect>
            <rect id="Rectangle-Copy-12" x="1320" y="0" width="10" height="391"></rect>
            <rect id="Rectangle-Copy-13" x="1380" y="0" width="10" height="391"></rect>
            <rect id="Rectangle-Copy-2" x="1140" y="0" width="10" height="391"></rect>
            <rect id="Rectangle-Copy-3" x="1260" y="0" width="10" height="391"></rect>
            <rect id="Rectangle" x="1440" y="0" width="10" height="391"></rect>
            <rect id="Rectangle-Copy" x="1800" y="0" width="10" height="391"></rect>
            <rect id="Rectangle-Copy-5" x="1500" y="0" width="10" height="391"></rect>
            <rect id="Rectangle-Copy-6" x="1560" y="0" width="10" height="391"></rect>
            <rect id="Rectangle-Copy-8" x="1620" y="0" width="10" height="391"></rect>
            <rect id="Rectangle-Copy-9" x="1680" y="0" width="10" height="391"></rect>
            <rect id="Rectangle-Copy-10" x="1740" y="0" width="10" height="391"></rect>
            <rect id="Rectangle-Copy-11" x="1920" y="0" width="10" height="391"></rect>
            <rect id="Rectangle-Copy-12" x="2040" y="0" width="10" height="391"></rect>
            <rect id="Rectangle-Copy-13" x="2100" y="0" width="10" height="391"></rect>
            <rect id="Rectangle-Copy-2" x="1860" y="0" width="10" height="391"></rect>
            <rect id="Rectangle-Copy-3" x="1980" y="0" width="10" height="391"></rect>
            <rect id="Rectangle" x="2160" y="0" width="10" height="391"></rect>
            <rect id="Rectangle-Copy" x="2520" y="0" width="10" height="391"></rect>
            <rect id="Rectangle-Copy-5" x="2220" y="0" width="10" height="391"></rect>
            <rect id="Rectangle-Copy-6" x="2280" y="0" width="10" height="391"></rect>
            <rect id="Rectangle-Copy-8" x="2340" y="0" width="10" height="391"></rect>
            <rect id="Rectangle-Copy-9" x="2400" y="0" width="10" height="391"></rect>
            <rect id="Rectangle-Copy-10" x="2460" y="0" width="10" height="391"></rect>
            <rect id="Rectangle-Copy-11" x="2640" y="0" width="10" height="391"></rect>
            <rect id="Rectangle-Copy-12" x="2760" y="0" width="10" height="391"></rect>
            <rect id="Rectangle-Copy-13" x="2820" y="0" width="10" height="391"></rect>
            <rect id="Rectangle-Copy-2" x="2580" y="0" width="10" height="391"></rect>
            <rect id="Rectangle-Copy-3" x="2700" y="0" width="10" height="391"></rect>
            <rect id="Rectangle" x="2880" y="0" width="10" height="391"></rect>
            <rect id="Rectangle-Copy" x="3240" y="0" width="10" height="391"></rect>
            <rect id="Rectangle-Copy-5" x="2940" y="0" width="10" height="391"></rect>
            <rect id="Rectangle-Copy-6" x="3000" y="0" width="10" height="391"></rect>
            <rect id="Rectangle-Copy-8" x="3060" y="0" width="10" height="391"></rect>
            <rect id="Rectangle-Copy-9" x="3120" y="0" width="10" height="391"></rect>
            <rect id="Rectangle-Copy-10" x="3180" y="0" width="10" height="391"></rect>
            <rect id="Rectangle-Copy-11" x="3360" y="0" width="10" height="391"></rect>
            <rect id="Rectangle-Copy-12" x="3480" y="0" width="10" height="391"></rect>
            <rect id="Rectangle-Copy-13" x="3540" y="0" width="10" height="391"></rect>
            <rect id="Rectangle-Copy-2" x="3300" y="0" width="10" height="391"></rect>
            <rect id="Rectangle-Copy-3" x="3420" y="0" width="10" height="391"></rect>
        </g>
    </g>
</svg>