<?xml version="1.0" encoding="UTF-8"?>
<svg width="10400px" height="526px" viewBox="0 0 10400 526" version="1.1" xmlns="http://www.w3.org/2000/svg" xmlns:xlink="http://www.w3.org/1999/xlink">
    <!-- Generator: Sketch 59.1 (86144) - https://sketch.com -->
    <title>weeks</title>
    <desc>Created with Sketch.</desc>
    <g id="weeks" stroke="none" stroke-width="1" fill="none" fill-rule="evenodd">
        <rect id="Rectangle" fill="#FFFFFF" x="0" y="68" width="70" height="391"></rect>
        <rect id="Rectangle-Copy" fill="#FFFFFF" x="1200" y="68" width="70" height="391"></rect>
        <rect id="Rectangle-Copy-5" fill="#FFFFFF" x="200" y="68" width="70" height="391"></rect>
        <rect id="Rectangle-Copy-6" fill="#FFFFFF" x="400" y="68" width="70" height="391"></rect>
        <rect id="Rectangle-Copy-8" fill="#FFFFFF" x="600" y="68" width="70" height="391"></rect>
        <rect id="Rectangle-Copy-9" fill="#FFFFFF" x="800" y="68" width="70" height="391"></rect>
        <rect id="Rectangle-Copy-10" fill="#FFFFFF" x="1000" y="68" width="70" height="391"></rect>
        <rect id="Rectangle-Copy-11" fill="#FFFFFF" x="1600" y="68" width="70" height="391"></rect>
        <rect id="Rectangle-Copy-12" fill="#FFFFFF" x="2000" y="68" width="70" height="391"></rect>
        <rect id="Rectangle-Copy-13" fill="#FFFFFF" x="2200" y="68" width="70" height="391"></rect>
        <rect id="Rectangle-Copy-2" fill="#FFFFFF" x="1400" y="68" width="70" height="391"></rect>
        <rect id="Rectangle-Copy-3" fill="#FFFFFF" x="1800" y="68" width="70" height="391"></rect>
        <rect id="Rectangle" fill="#FFFFFF" x="2400" y="68" width="70" height="391"></rect>
        <rect id="Rectangle-Copy" fill="#FFFFFF" x="3600" y="68" width="70" height="391"></rect>
        <rect id="Rectangle-Copy-5" fill="#FFFFFF" x="2600" y="68" width="70" height="391"></rect>
        <rect id="Rectangle-Copy-6" fill="#FFFFFF" x="2800" y="68" width="70" height="391"></rect>
        <rect id="Rectangle-Copy-8" fill="#FFFFFF" x="3000" y="68" width="70" height="391"></rect>
        <rect id="Rectangle-Copy-9" fill="#FFFFFF" x="3200" y="68" width="70" height="391"></rect>
        <rect id="Rectangle-Copy-10" fill="#FFFFFF" x="3400" y="68" width="70" height="391"></rect>
        <rect id="Rectangle-Copy-11" fill="#FFFFFF" x="4000" y="68" width="70" height="391"></rect>
        <rect id="Rectangle-Copy-12" fill="#FFFFFF" x="4400" y="68" width="70" height="391"></rect>
        <rect id="Rectangle-Copy-13" fill="#FFFFFF" x="4600" y="68" width="70" height="391"></rect>
        <rect id="Rectangle-Copy-2" fill="#FFFFFF" x="3800" y="68" width="70" height="391"></rect>
        <rect id="Rectangle-Copy-3" fill="#FFFFFF" x="4200" y="68" width="70" height="391"></rect>
        <rect id="Rectangle" fill="#FFFFFF" x="4800" y="68" width="70" height="391"></rect>
        <rect id="Rectangle-Copy" fill="#FFFFFF" x="6000" y="68" width="70" height="391"></rect>
        <rect id="Rectangle-Copy-5" fill="#FFFFFF" x="5000" y="68" width="70" height="391"></rect>
        <rect id="Rectangle-Copy-6" fill="#FFFFFF" x="5200" y="68" width="70" height="391"></rect>
        <rect id="Rectangle-Copy-8" fill="#FFFFFF" x="5400" y="68" width="70" height="391"></rect>
        <rect id="Rectangle-Copy-9" fill="#FFFFFF" x="5600" y="68" width="70" height="391"></rect>
        <rect id="Rectangle-Copy-10" fill="#FFFFFF" x="5800" y="68" width="70" height="391"></rect>
        <rect id="Rectangle-Copy-11" fill="#FFFFFF" x="6400" y="68" width="70" height="391"></rect>
        <rect id="Rectangle-Copy-12" fill="#FFFFFF" x="6800" y="68" width="70" height="391"></rect>
        <rect id="Rectangle-Copy-13" fill="#FFFFFF" x="7000" y="68" width="70" height="391"></rect>
        <rect id="Rectangle-Copy-2" fill="#FFFFFF" x="6200" y="68" width="70" height="391"></rect>
        <rect id="Rectangle-Copy-3" fill="#FFFFFF" x="6600" y="68" width="70" height="391"></rect>
        <rect id="Rectangle" fill="#FFFFFF" x="7200" y="68" width="70" height="391"></rect>
        <rect id="Rectangle-Copy" fill="#FFFFFF" x="8400" y="68" width="70" height="391"></rect>
        <rect id="Rectangle-Copy-5" fill="#FFFFFF" x="7400" y="68" width="70" height="391"></rect>
        <rect id="Rectangle-Copy-6" fill="#FFFFFF" x="7600" y="68" width="70" height="391"></rect>
        <rect id="Rectangle-Copy-8" fill="#FFFFFF" x="7800" y="68" width="70" height="391"></rect>
        <rect id="Rectangle-Copy-9" fill="#FFFFFF" x="8000" y="68" width="70" height="391"></rect>
        <rect id="Rectangle-Copy-10" fill="#FFFFFF" x="8200" y="68" width="70" height="391"></rect>
        <rect id="Rectangle-Copy-11" fill="#FFFFFF" x="8800" y="68" width="70" height="391"></rect>
        <rect id="Rectangle-Copy-12" fill="#FFFFFF" x="9200" y="68" width="70" height="391"></rect>
        <rect id="Rectangle-Copy-13" fill="#FFFFFF" x="9400" y="68" width="70" height="391"></rect>
        <rect id="Rectangle-Copy-2" fill="#FFFFFF" x="8600" y="68" width="70" height="391"></rect>
        <rect id="Rectangle-Copy-3" fill="#FFFFFF" x="9000" y="68" width="70" height="391"></rect>
        <rect id="Rectangle" fill="#FFFFFF" x="9600" y="68" width="70" height="391"></rect>
        <rect id="Rectangle-Copy-5" fill="#FFFFFF" x="9800" y="68" width="70" height="391"></rect>
        <rect id="Rectangle-Copy-6" fill="#FFFFFF" x="10000" y="68" width="70" height="391"></rect>
        <rect id="Rectangle-Copy-8" fill="#FFFFFF" x="10200" y="68" width="70" height="391"></rect>
    </g>
</svg>